<?xml version="1.0" encoding="utf-8"?>
<!-- Generator: Adobe Illustrator 19.2.1, SVG Export Plug-In . SVG Version: 6.00 Build 0)  -->
<svg version="1.1" id="Layer_1" xmlns="http://www.w3.org/2000/svg" xmlns:xlink="http://www.w3.org/1999/xlink" x="0px" y="0px"
	 viewBox="0 0 252.1 252.1" style="enable-background:new 0 0 252.1 252.1;" xml:space="preserve">
<style type="text/css">
	.st0{fill:#FFFFFF;}
</style>
<path class="st0" d="M126,0C56.4,0,0,56.4,0,126s56.4,126,126,126s126-56.4,126-126S195.6,0,126,0z M180.7,191.1l-39-47
	c-1,1.3-2.1,2.6-3.3,3.9c-1.2,1.3-2.4,2.6-3.7,3.9v39.2h0h-24h0v-39.2c-1.3-1.3-2.5-2.6-3.7-3.9c-1.2-1.3-2.3-2.6-3.3-3.9l-39,47
	H33.2l54.3-64.9L36.7,69.3h32.6l41.4,46.1V69.3h0h24h0v46.1l41.4-46.1h32.6l-50.8,56.9l54.3,64.9H180.7z"/>
</svg>
